# xmcd
#
# Track frame offsets:
#	150
#	14558
#	33665
#	46936
#	64606
#	80804
#	99300
#	115118
#	134730
#	145880
#	164971
#	176767
#	190487
#	207699
#
# Disc length: 2958 seconds
#
# Revision: 1
# Processed by: cddbd v1.5.1PL0 Copyright (c) Steve Scherf et al.
# Submitted via: audiograbber 1.83.01
#
DISCID=dc0b8c0e
DTITLE=Alma Nova - Na Boa
DYEAR=1900
DGENRE=Bandinha
TTITLE0=Na Boa
TTITLE1=Rei Leão
TTITLE2=Turma Da Alegria
TTITLE3=Minha Estrela
TTITLE4=O Bicho
TTITLE5=Vida De Cowboy
TTITLE6=Moça Da Cidade
TTITLE7=Não Cnsigo Te Esquecer
TTITLE8=A Saudade é Um Abraço
TTITLE9=Não é Amor Que Eu Vim Comprar
TTITLE10=Herói Da Estrada
TTITLE11=Meu Tesouro
TTITLE12=Esparando Por Ela
TTITLE13=Fruta Proibida
EXTD=
EXTT0=
EXTT1=
EXTT2=
EXTT3=
EXTT4=
EXTT5=
EXTT6=
EXTT7=
EXTT8=
EXTT9=
EXTT10=
EXTT11=
EXTT12=
EXTT13=
PLAYORDER=
